<svg width="25" height="25" viewBox="0 0 25 25" fill="none" xmlns="http://www.w3.org/2000/svg">
<path d="M24.322 2.22041C23.4181 1.32823 21.9525 1.32823 21.0494 2.22041L7.62816 15.4705C5.98441 15.4338 3.70939 16.0158 2.72734 19.2322C1.97659 20.9346 0 20.8487 0 20.8487C4.10394 25.4019 8.94071 22.8214 10.0454 21.7026C11.0157 20.719 11.1555 19.5166 11.0516 18.5549L24.322 5.4517C25.226 4.55953 25.226 3.11263 24.322 2.22041ZM8.95395 20.6253C8.18522 21.3385 4.74923 22.9284 2.72734 21.387C2.72734 21.387 3.43125 20.8378 3.96408 19.7354C5.23672 16.3549 8.40862 16.8549 8.40862 16.8549L9.49928 17.9322C9.51022 17.9424 10.3141 19.3643 8.95395 20.6253ZM10.5907 16.8549C10.4899 16.7557 9.50009 15.7776 9.50009 15.7776L11.1368 14.1619L12.2275 15.2392L10.5907 16.8549ZM23.2306 4.37436L13.3181 14.1619L12.2274 13.0846L22.14 3.29779C22.4416 3.00013 22.9298 3.00013 23.2306 3.29779C23.5322 3.59468 23.5322 4.07747 23.2306 4.37436Z" fill="black"/>
</svg>
